<?xml version="1.0" encoding="UTF-8"?>
<svg xmlns="http://www.w3.org/2000/svg" width="960" height="540" viewBox="0 0 960 540" role="img" aria-label="Content factory: brief → posts → publish">
  <defs>
    <linearGradient id="bg-content-factory" x1="0" y1="0" x2="1" y2="1">
      <stop offset="0%" stop-color="#6d28d9"/>
      <stop offset="100%" stop-color="#2e1065"/>
    </linearGradient>
    <radialGradient id="orb-content-factory" cx="30%" cy="20%" r="70%">
      <stop offset="0%" stop-color="#a78bfa" stop-opacity="0.35"/>
      <stop offset="100%" stop-color="#a78bfa" stop-opacity="0"/>
    </radialGradient>
    <pattern id="grid-content-factory" width="28" height="28" patternUnits="userSpaceOnUse">
      <path d="M 28 0 L 0 0 0 28" fill="none" stroke="#ffffff" stroke-opacity="0.06" stroke-width="1"/>
    </pattern>
  </defs>
  <rect width="960" height="540" fill="url(#bg-content-factory)"/>
  <rect width="960" height="540" fill="url(#grid-content-factory)"/>
  <rect width="960" height="540" fill="url(#orb-content-factory)"/>
  <g transform="translate(560 130) scale(1.15)" fill="#ede9fe" color="#ede9fe">
    
    <rect x="32" y="40" width="88" height="112" rx="8" fill="currentColor" opacity="0.28"/>
    <rect x="56" y="64" width="88" height="112" rx="8" fill="currentColor" opacity="0.4"/>
    <rect x="80" y="88" width="88" height="112" rx="8" fill="currentColor" opacity="0.55"/>
    <path d="M200 56h64v16h-64zM200 96h48v16h-48zM200 136h56v16h-56z" stroke="currentColor" stroke-width="8" stroke-linecap="round" opacity="0.75"/>
    <path d="M184 176 L248 176 L216 208 Z" fill="currentColor" opacity="0.85"/>
  
  </g>
  <rect x="0" y="420" width="960" height="120" fill="#09090b" fill-opacity="0.25"/>
</svg>