<?xml version="1.0" encoding="UTF-8"?>
<svg xmlns="http://www.w3.org/2000/svg" width="960" height="540" viewBox="0 0 960 540" role="img" aria-label="Lead scoring and broker routing">
  <defs>
    <linearGradient id="bg-real-estate-leads" x1="0" y1="0" x2="1" y2="1">
      <stop offset="0%" stop-color="#be123c"/>
      <stop offset="100%" stop-color="#4c0519"/>
    </linearGradient>
    <radialGradient id="orb-real-estate-leads" cx="30%" cy="20%" r="70%">
      <stop offset="0%" stop-color="#fb7185" stop-opacity="0.35"/>
      <stop offset="100%" stop-color="#fb7185" stop-opacity="0"/>
    </radialGradient>
    <pattern id="grid-real-estate-leads" width="28" height="28" patternUnits="userSpaceOnUse">
      <path d="M 28 0 L 0 0 0 28" fill="none" stroke="#ffffff" stroke-opacity="0.06" stroke-width="1"/>
    </pattern>
  </defs>
  <rect width="960" height="540" fill="url(#bg-real-estate-leads)"/>
  <rect width="960" height="540" fill="url(#grid-real-estate-leads)"/>
  <rect width="960" height="540" fill="url(#orb-real-estate-leads)"/>
  <g transform="translate(560 130) scale(1.15)" fill="#ffe4e6" color="#ffe4e6">
    
    <rect x="88" y="72" width="64" height="128" fill="currentColor" opacity="0.35"/>
    <rect x="56" y="104" width="48" height="96" fill="currentColor" opacity="0.28"/>
    <rect x="136" y="96" width="56" height="104" fill="currentColor" opacity="0.45"/>
    <path d="M48 200h176" stroke="currentColor" stroke-width="6" stroke-linecap="round" opacity="0.55"/>
    <path d="M216 56c24 0 44 20 44 44 0 32-44 72-44 72s-44-40-44-72c0-24 20-44 44-44z" fill="currentColor" opacity="0.85"/>
    <circle cx="216" cy="100" r="12" fill="#4c0519"/>
  
  </g>
  <rect x="0" y="420" width="960" height="120" fill="#09090b" fill-opacity="0.25"/>
</svg>