<?xml version="1.0" encoding="UTF-8"?>
<svg xmlns="http://www.w3.org/2000/svg" width="960" height="540" viewBox="0 0 960 540" role="img" aria-label="Computer vision QA on the assembly line">
  <defs>
    <linearGradient id="bg-vision-qa" x1="0" y1="0" x2="1" y2="1">
      <stop offset="0%" stop-color="#0891b2"/>
      <stop offset="100%" stop-color="#083344"/>
    </linearGradient>
    <radialGradient id="orb-vision-qa" cx="30%" cy="20%" r="70%">
      <stop offset="0%" stop-color="#22d3ee" stop-opacity="0.35"/>
      <stop offset="100%" stop-color="#22d3ee" stop-opacity="0"/>
    </radialGradient>
    <pattern id="grid-vision-qa" width="28" height="28" patternUnits="userSpaceOnUse">
      <path d="M 28 0 L 0 0 0 28" fill="none" stroke="#ffffff" stroke-opacity="0.06" stroke-width="1"/>
    </pattern>
  </defs>
  <rect width="960" height="540" fill="url(#bg-vision-qa)"/>
  <rect width="960" height="540" fill="url(#grid-vision-qa)"/>
  <rect width="960" height="540" fill="url(#orb-vision-qa)"/>
  <g transform="translate(560 130) scale(1.15)" fill="#cffafe" color="#cffafe">
    
    <rect x="48" y="72" width="112" height="88" rx="8" fill="currentColor" opacity="0.35"/>
    <path d="M64 160 L144 160 L120 208 L88 208 Z" fill="currentColor" opacity="0.55"/>
    <circle cx="104" cy="112" r="24" fill="none" stroke="currentColor" stroke-width="6" opacity="0.75"/>
    <circle cx="104" cy="112" r="8" fill="currentColor"/>
    <path d="M184 88 L248 88 L248 152 L184 152 Z" fill="currentColor" opacity="0.28"/>
    <path d="M200 104 L232 136 M232 104 L200 136" stroke="currentColor" stroke-width="8" stroke-linecap="round" opacity="0.85"/>
  
  </g>
  <rect x="0" y="420" width="960" height="120" fill="#09090b" fill-opacity="0.25"/>
</svg>