<?xml version="1.0" encoding="UTF-8"?>
<svg xmlns="http://www.w3.org/2000/svg" width="960" height="540" viewBox="0 0 960 540" role="img" aria-label="Voice AI reception and appointment booking">
  <defs>
    <linearGradient id="bg-voice-clinic" x1="0" y1="0" x2="1" y2="1">
      <stop offset="0%" stop-color="#0891b2"/>
      <stop offset="100%" stop-color="#083344"/>
    </linearGradient>
    <radialGradient id="orb-voice-clinic" cx="30%" cy="20%" r="70%">
      <stop offset="0%" stop-color="#22d3ee" stop-opacity="0.35"/>
      <stop offset="100%" stop-color="#22d3ee" stop-opacity="0"/>
    </radialGradient>
    <pattern id="grid-voice-clinic" width="28" height="28" patternUnits="userSpaceOnUse">
      <path d="M 28 0 L 0 0 0 28" fill="none" stroke="#ffffff" stroke-opacity="0.06" stroke-width="1"/>
    </pattern>
  </defs>
  <rect width="960" height="540" fill="url(#bg-voice-clinic)"/>
  <rect width="960" height="540" fill="url(#grid-voice-clinic)"/>
  <rect width="960" height="540" fill="url(#orb-voice-clinic)"/>
  <g transform="translate(560 130) scale(1.15)" fill="#cffafe" color="#cffafe">
    
    <rect x="20" y="20" width="120" height="200" rx="28" fill="currentColor" opacity="0.25"/>
    <circle cx="80" cy="176" r="10" fill="currentColor" opacity="0.5"/>
    <path d="M48 52h64v88H48z" fill="currentColor" opacity="0.45"/>
    <path d="M170 70c18 14 28 34 28 58s-10 44-28 58" fill="none" stroke="currentColor" stroke-width="8" stroke-linecap="round" opacity="0.8"/>
    <path d="M198 48c28 22 44 54 44 88s-16 66-44 88" fill="none" stroke="currentColor" stroke-width="8" stroke-linecap="round" opacity="0.55"/>
    <path d="M226 26c38 30 60 74 60 122s-22 92-60 122" fill="none" stroke="currentColor" stroke-width="8" stroke-linecap="round" opacity="0.35"/>
  
  </g>
  <rect x="0" y="420" width="960" height="120" fill="#09090b" fill-opacity="0.25"/>
</svg>